# AST/ASF file generated using VICON BodyLanguage
# -----------------------------------------------
:version 1.10
:name VICON
:units
  mass 1.0
  length 0.45
  angle deg
:documentation
   .ast/.asf automatically generated from VICON data using
   VICON BodyBuilder and BodyLanguage model FoxedUp or BRILLIANT.MOD
:root
   order TX TY TZ RX RY RZ
   axis XYZ
   position 0 0 0  
   orientation 0 0 0 
:bonedata
  begin
     id 1 
     name lhipjoint
     direction 0.646657 -0.683706 0.338203 
     length 2.4948 
     axis 0 0 0  XYZ
  end
  begin
     id 2 
     name lfemur
     direction 0.34202 -0.939693 0  
     length 6.79491  
     axis 0 0 20  XYZ
    dof rx ry rz
    limits (-160.0 20.0)
           (-70.0 70.0)
           (-60.0 70.0)
  end
  begin
     id 3 
     name ltibia
     direction 0.34202 -0.939693 0   
     length 7.56807   
     axis 0 0 20   XYZ
    dof rx
    limits (-10.0 170.0)
  end
  begin
     id 4 
     name lfoot
     direction 0.0679796 -0.186772 0.980048   
     length 2.53018   
     axis -90 7.62852e-016 20   XYZ
    dof rx rz
    limits (-45.0 90.0)
           (-70.0 20.0)
  end
  begin
     id 5 
     name ltoes
     direction 1.53625e-011 -4.21881e-011 1   
     length 1.26912   
     axis -90 7.62852e-016 20   XYZ
    dof rx
    limits (-90.0 20.0)
  end
  begin
     id 6 
     name rhipjoint
     direction -0.618868 -0.704065 0.348274   
     length 2.42265  
     axis 0 0 0  XYZ 
  end
  begin
     id 7 
     name rfemur
     direction -0.34202 -0.939693 0   
     length 6.73814   
     axis 0 0 -20   XYZ
    dof rx ry rz
    limits (-160.0 20.0)
           (-70.0 70.0)
           (-70.0 60.0)
  end
  begin
     id 8 
     name rtibia
     direction -0.34202 -0.939693 0   
     length 7.66799   
     axis 0 0 -20   XYZ
    dof rx
    limits (-10.0 170.0)
 end
 begin
     id 9 
     name rfoot
     direction -0.0727352 -0.199838 0.977125   
     length 2.57224  
     axis -90 -7.62852e-016 -20   XYZ
    dof rx rz
    limits (-45.0 90.0)
           (-20.0 70.0)
  end
  begin
     id 10 
     name rtoes
     direction -1.53501e-011 -4.21858e-011 1   
     length 1.28858   
     axis -90 -7.62852e-016 -20   XYZ
    dof rx
    limits (-90.0 20.0)
  end
  begin
     id 11 
     name lowerback
     direction -0.0172471 0.995767 -0.0902851   
     length 2.20206   
     axis 0 0 0   XYZ
    dof rx ry rz
    limits (-20.0 45.0)
           (-30.0 30.0)
           (-30.0 30.0)
  end
  begin
     id 12 
     name upperback
     direction -0.000110737 0.999714 0.0239043   
     length 2.19523   
     axis 0 0 0   XYZ
    dof rx ry rz
    limits (-20.0 45.0)
           (-30.0 30.0)
           (-30.0 30.0)
  end
  begin
     id 13 
     name thorax
     direction 0.00704869 0.997783 0.0661741   
     length 2.21977   
     axis 0 0 0   XYZ
    dof rx ry rz
    limits (-20.0 45.0)
           (-30.0 30.0)
           (-30.0 30.0)
  end
  begin
     id 14 
     name lowerneck
     direction -0.00407501 0.995527 0.0943846   
     length 1.83142   
     axis 0 0 0   XYZ
    dof rx ry rz
    limits (-20.0 45.0)
           (-30.0 30.0)
           (-30.0 30.0)
  end
  begin
     id 15 
     name upperneck
     direction 0.0640586 0.986486 -0.150807   
     length 1.84616   
     axis 0 0 0   XYZ
    dof rx ry rz
    limits (-20.0 45.0)
           (-30.0 30.0)
           (-30.0 30.0)
  end
  begin
     id 16
     name head
     direction 0.0188017 0.99791 -0.0618239  
     length 1.85932  
     axis 0 0 0   XYZ
    dof rx ry rz
    limits (-20.0 45.0)
           (-30.0 30.0)
           (-30.0 30.0)
  end
  begin
     id 17 
     name lclavicle
     direction 0.976074 0.206905 0.066852  
     length 3.81043  
     axis 0 0 0   XYZ
    dof ry rz
    limits (-20.0 10.0)
           (0.0 20.0)
  end
  begin
     id 18 
     name lhumerus
     direction 1 -4.48971e-011 1.86916e-027   
     length 5.37587   
     axis 180 -30 -90   XYZ
    dof rx ry rz
    limits (-60.0 90.0)
           (-90.0 90.0)
           (-90.0 90.0)
  end
  begin
     id 19
     name lradius
     direction 1 -4.48968e-011 1.69187e-027   
     length 3.35977   
     axis 180 -30 -90   XYZ
    dof rx
    limits (-10.0 170.0)
  end
  begin
     id 20
     name lwrist
     direction 1 -4.48968e-011 5.8978e-027   
     length 1.67988   
     axis -3.27506e-015 90 90   XYZ
    dof ry
    limits (-180.0 0.0)
 end
  begin
     id 21 
     name lhand
     direction 1 -4.49028e-011 1.18071e-026   
     length 0.561859   
     axis -7.52654e-015 90 90   XYZ
    dof rx rz
    limits (-90.0 90.0)
           (-45.0 45.0)
  end
  begin
     id 22 
     name lfingers
     direction 1 -4.48927e-011 2.35758e-026   
     length 0.452985   
     axis -1.50534e-014 90 90   XYZ
    dof rx
    limits (0.0 90.0)
  end
  begin
     id 23
     name lthumb
     direction 0.707107 -6.34898e-011 0.707107   
     length 0.650399   
     axis -90 45 5.69224e-014   XYZ
    dof rx rz
    limits (-45.0 45.0)
           (-45.0 45.0)
  end
  begin
     id 24 
     name rclavicle
     direction -0.988403 0.151789 0.00439714   
     length 3.6942  
     axis 0 0 0   XYZ 
    dof ry rz
    limits (-10.0 20.0)
           (-20.0 0.0)
  end
  begin
     id 25 
     name rhumerus
     direction -1 -4.48978e-011 1.62495e-027  
     length 5.22819   
     axis 180 30 90   XYZ
    dof rx ry rz
    limits (-90.0 60.0)
           (-90.0 90.0)
           (-90.0 90.0)
  end
  begin
     id 26 
     name rradius
     direction -1 -4.48961e-011 3.47796e-027   
     length 3.40764   
     axis 180 30 90   XYZ
    dof rx
    limits (-10.0 170.0)
  end
  begin
     id 27 
     name rwrist
     direction -1 -4.48949e-011 5.89602e-027   
     length 1.70382   
     axis -3.27506e-015 -90 -90   XYZ
    dof ry
    limits (-180.0 0.0)
  end
  begin
     id 28
     name rhand
     direction -1 -4.48977e-011 1.17973e-026   
     length 0.583255   
     axis -7.52654e-015 -90 -90   XYZ
    dof rx rz
    limits (-90.0 90.0)
           (-45.0 45.0)
  end
  begin
     id 29
     name rfingers
     direction -1 -4.49099e-011 2.36408e-026   
     length 0.470235   
     axis -1.50534e-014 -90 -90   XYZ
    dof rx
    limits (0.0 90.0)
  end
  begin
     id 30
     name rthumb
     direction -0.707107 -6.35011e-011 0.707107   
     length 0.675167   
     axis -90 -45 -5.69224e-014   XYZ
    dof rx rz
    limits (-45.0 45.0)
           (-45.0 45.0)
  end
:hierarchy
  begin
    root lhipjoint rhipjoint lowerback
    lhipjoint lfemur
    lfemur ltibia
    ltibia lfoot
    lfoot ltoes
    rhipjoint rfemur
    rfemur rtibia
    rtibia rfoot
    rfoot rtoes
    lowerback upperback
    upperback thorax
    thorax lowerneck lclavicle rclavicle
    lowerneck upperneck
    upperneck head
    lclavicle lhumerus
    lhumerus lradius
    lradius lwrist
    lwrist lhand lthumb
    lhand lfingers
    rclavicle rhumerus
    rhumerus rradius
    rradius rwrist
    rwrist rhand rthumb
    rhand rfingers
  end

#!OML:ASF G:\JayActor3\Patient Classification 1\Patient 1\Session 2\male.ASF
:FULLY-SPECIFIED
:DEGREES
1378
root -38.5161 16.6452 -2.87469 -327.157 -264.093 29.2817
lowerback -6.81572 0.330149 1.02342
upperback 0.236923 0.315628 1.40017
thorax 4.06664 0.170292 0.905903
lowerneck -5.80235 3.21819 2.02918
upperneck -1.81977 4.24462 3.24223
head 0.364411 2.17685 0.740456
rclavicle 2.57799e-015 1.42131e-014
rhumerus -31.1036 8.43568 -83.5968
rradius 33.4281
rwrist -2.13754
rhand -21.6175 3.99087
rfingers 7.12502
rthumb 4.77814 -25.9353
lclavicle 2.57799e-015 1.42131e-014
lhumerus -51.9628 6.82249 72.0311
lradius 27.5107
lwrist 4.24269
lhand -11.0742 16.1994
lfingers 7.12502
lthumb 14.949 45.6399
rfemur -4.61061 -2.73663 24.3166
rtibia 28.2905
rfoot -31.2859 -3.4653
rtoes 15.3925
lfemur -16.3161 3.45429 -18.7833
ltibia 34.1188
lfoot -17.0364 5.63015
ltoes -10.2853
1379
root -38.4725 16.6445 -2.90265 -326.447 -264.363 29.9515
lowerback -6.99635 0.325846 0.992992
upperback 0.10956 0.313729 1.35993
thorax 4.03611 0.169483 0.881754
lowerneck -5.74279 3.3125 2.07082
upperneck -2.13677 4.38649 3.25146
head 0.255996 2.24353 0.733344
rclavicle -2.78578e-014 2.98177e-016
rhumerus -31.2015 8.65653 -83.8225
rradius 33.8213
rwrist -2.33988
rhand -21.557 3.90616
rfingers 7.12502
rthumb 4.83656 -26.0186
lclavicle -2.78578e-014 2.98177e-016
lhumerus -52.4771 7.03197 71.8782
lradius 28.1225
lwrist 4.4925
lhand -10.6514 16.2763
lfingers 7.12502
lthumb 15.3563 45.6861
rfemur -4.477 -2.46845 24.1428
rtibia 28.2655
rfoot -31.2496 -3.66038
rtoes 15.3099
lfemur -16.0104 3.63469 -18.9612
ltibia 33.9001
lfoot -17.203 5.6977
ltoes -10.1407
1380
root -38.4288 16.6435 -2.93178 -325.775 -264.633 30.5906
lowerback -7.16541 0.315191 0.974104
upperback -0.0152935 0.30303 1.31337
thorax 4.00177 0.164647 0.843576
lowerneck -5.67491 3.40669 2.09826
upperneck -2.46143 4.53024 3.27169
head 0.143758 2.31107 0.731501
rclavicle -1.15714e-014 -1.61513e-014
rhumerus -31.3009 8.8685 -84.0552
rradius 34.1912
rwrist -2.51221
rhand -21.4993 3.83568
rfingers 7.12502
rthumb 4.89226 -26.0878
lclavicle -1.15714e-014 -1.61513e-014
lhumerus -52.9593 7.24456 71.7373
lradius 28.7668
lwrist 4.72813
lhand -10.2156 16.3515
lfingers 7.12502
lthumb 15.776 45.7286
rfemur -4.34162 -2.19073 23.9583
rtibia 28.2537
rfoot -31.2106 -3.89954
rtoes 15.2172
lfemur -15.6989 3.80384 -19.155
ltibia 33.6842
lfoot -17.3616 5.77275
ltoes -10.0105
1381
root -38.3848 16.6418 -2.96184 -325.35 -264.897 30.9995
lowerback -7.32164 0.294521 0.953318
upperback -0.12944 0.279581 1.25656
thorax 3.97139 0.153504 0.794439
lowerneck -5.62465 3.49962 2.11767
upperneck -2.7754 4.67241 3.30063
head 0.037698 2.37824 0.734005
rclavicle 7.22536e-015 1.28713e-014
rhumerus -31.402 9.07136 -84.2957
rradius 34.5478
rwrist -2.6598
rhand -21.4504 3.76948
rfingers 7.12502
rthumb 4.93947 -26.153
lclavicle 7.22536e-015 1.28713e-014
lhumerus -53.3965 7.45321 71.6125
lradius 29.4455
lwrist 4.94751
lhand -9.80035 16.4492
lfingers 7.12502
lthumb 16.1759 45.7943
rfemur -4.1956 -1.9195 23.7504
rtibia 28.2614
rfoot -31.1675 -4.18
rtoes 15.0705
lfemur -15.3737 3.95475 -19.3745
ltibia 33.4733
lfoot -17.511 5.8465
ltoes -9.88638
1382
root -38.3406 16.6393 -2.99264 -325.184 -265.157 31.1652
lowerback -7.45925 0.26674 0.929427
upperback -0.235956 0.247491 1.19013
thorax 3.93847 0.138052 0.736027
lowerneck -5.57326 3.59063 2.11975
upperneck -3.09356 4.81428 3.35249
head -0.0704856 2.44544 0.74614
rclavicle -3.77596e-015 1.02871e-014
rhumerus -31.5107 9.25666 -84.5394
rradius 34.8913
rwrist -2.78777
rhand -21.4056 3.70271
rfingers 7.12502
rthumb 4.98276 -26.2187
lclavicle -3.77596e-015 1.02871e-014
lhumerus -53.7902 7.65039 71.5077
lradius 30.1607
lwrist 5.15822
lhand -9.40012 16.5534
lfingers 7.12502
lthumb 16.5612 45.8667
rfemur -4.04384 -1.63799 23.5242
rtibia 28.2968
rfoot -31.1262 -4.50023
rtoes 14.8639
lfemur -15.0372 4.08873 -19.6168
ltibia 33.2685
lfoot -17.6533 5.9124
ltoes -9.75396
1383
root -38.2963 16.6357 -3.02369 -325.333 -265.408 31.0348
lowerback -7.57726 0.229901 0.896391
upperback -0.331946 0.204463 1.11778
thorax 3.90543 0.116997 0.675297
lowerneck -5.52798 3.67707 2.1202
upperneck -3.40852 4.95047 3.40618
head -0.176648 2.50988 0.759131
rclavicle 3.28092e-015 8.05078e-015
rhumerus -31.6239 9.42143 -84.7822
rradius 35.2207
rwrist -2.89105
rhand -21.3759 3.63674
rfingers 7.12502
rthumb 5.01142 -26.284
lclavicle 3.28092e-015 8.05078e-015
lhumerus -54.1318 7.84184 71.4235
lradius 30.9137
lwrist 5.35272
lhand -8.99518 16.6455
lfingers 7.12502
lthumb 16.9511 45.9258
rfemur -3.88809 -1.3321 23.2884
rtibia 28.3685
rfoot -31.0991 -4.8875
rtoes 14.6472
lfemur -14.689 4.20697 -19.876
ltibia 33.0723
lfoot -17.7887 5.9657
ltoes -9.62739
1384
root -38.2523 16.6309 -3.05478 -325.845 -265.655 30.5596
lowerback -7.68062 0.188479 0.846789
upperback -0.412899 0.156873 1.03941
thorax 3.87967 0.0933536 0.617087
lowerneck -5.49911 3.75563 2.12203
upperneck -3.71044 5.07556 3.45951
head -0.276065 2.56906 0.772162
rclavicle 8.56366e-015 5.96354e-016
rhumerus -31.7398 9.55707 -85.0178
rradius 35.5392
rwrist -2.96978
rhand -21.3618 3.567
rfingers 7.12502
rthumb 5.025 -26.3534
lclavicle 8.56366e-015 5.96354e-016
lhumerus -54.4111 8.02076 71.3702
lradius 31.7107
lwrist 5.55428
lhand -8.58058 16.6738
lfingers 7.12502
lthumb 17.3501 45.9194
rfemur -3.73364 -0.993557 23.0413
rtibia 28.4862
rfoot -31.0953 -5.32942
rtoes 14.4153
lfemur -14.3307 4.31639 -20.1547
ltibia 32.8873
lfoot -17.9215 6.00538
ltoes -9.51544
1385
root -38.2096 16.625 -3.08571 -326.459 -265.902 29.9925
lowerback -7.7718 0.148587 0.794977
upperback -0.481658 0.111491 0.961384
thorax 3.85965 0.0707372 0.56063
lowerneck -5.46947 3.82539 2.1214
upperneck -4.01973 5.19002 3.5099
head -0.377868 2.62277 0.784449
rclavicle 1.01334e-014 4.72114e-015
rhumerus -31.8551 9.66179 -85.2421
rradius 35.8448
rwrist -3.03012
rhand -21.3654 3.50408
rfingers 7.12502
rthumb 5.02153 -26.4164
lclavicle 1.01334e-014 4.72114e-015
lhumerus -54.6232 8.20371 71.3369
lradius 32.55
lwrist 5.75925
lhand -8.16344 16.6765
lfingers 7.12502
lthumb 17.7516 45.8862
rfemur -3.60439 -0.596479 22.8059
rtibia 28.6604
rfoot -31.1382 -5.81092
rtoes 14.1447
lfemur -13.9811 4.42747 -20.434
ltibia 32.7155
lfoot -18.0484 6.03518
ltoes -9.40102
1386
root -38.1679 16.6179 -3.11622 -327.278 -266.148 29.2353
lowerback -7.8459 0.107742 0.730949
upperback -0.534655 0.065731 0.885694
thorax 3.84634 0.047641 0.51335
lowerneck -5.44426 3.88419 2.12716
upperneck -4.33265 5.28951 3.53905
head -0.479379 2.6688 0.7891
rclavicle 4.3523e-015 -7.25564e-015
rhumerus -31.9691 9.74658 -85.4538
rradius 36.1385
rwrist -3.07835
rhand -21.3918 3.44822
rfingers 7.12502
rthumb 4.99608 -26.4729
lclavicle 4.3523e-015 -7.25564e-015
lhumerus -54.7646 8.40841 71.3127
lradius 33.4274
lwrist 5.95143
lhand -7.79965 16.7248
lfingers 7.12502
lthumb 18.1016 45.9025
rfemur -3.49466 -0.14064 22.5809
rtibia 28.9004
rfoot -31.2381 -6.32853
rtoes 13.8059
lfemur -13.6316 4.5452 -20.717
ltibia 32.5572
lfoot -18.174 6.05806
ltoes -9.31466
1387
root -38.1275 16.6095 -3.14664 -328.33 -266.408 28.2622
lowerback -7.90554 0.0722537 0.652133
upperback -0.569157 0.028237 0.808047
thorax 3.84405 0.0283119 0.473227
lowerneck -5.42436 3.93527 2.13341
upperneck -4.64331 5.37865 3.56082
head -0.579247 2.70972 0.791481
rclavicle -5.38893e-016 -7.30534e-015
rhumerus -32.0834 9.81107 -85.653
rradius 36.4236
rwrist -3.12578
rhand -21.4418 3.40659
rfingers 7.12502
rthumb 4.94779 -26.5156
lclavicle -5.38893e-016 -7.30534e-015
lhumerus -54.8362 8.6404 71.2887
lradius 34.3525
lwrist 6.13255
lhand -7.48425 16.8338
lfingers 7.12502
lthumb 18.405 45.9831
rfemur -3.41243 0.356312 22.3503
rtibia 29.2158
rfoot -31.3868 -6.84023
rtoes 13.4167
lfemur -13.2789 4.67553 -21.0146
ltibia 32.4108
lfoot -18.304 6.08224
ltoes -9.22086
